<?xml version="1.0" encoding="iso-8859-1"?>
<!-- Generator: Adobe Illustrator 19.0.0, SVG Export Plug-In . SVG Version: 6.00 Build 0)  -->
<svg version="1.1" id="Capa_1" xmlns="http://www.w3.org/2000/svg" xmlns:xlink="http://www.w3.org/1999/xlink" x="0px" y="0px"
	 viewBox="0 0 512 512" style="enable-background:new 0 0 512 512;" xml:space="preserve">
<path style="fill:#0078EB;" d="M383,158H126V35c0-19.299,15.701-35,35-35h187c19.299,0,35,15.701,35,35V158z"/>
<path style="fill:#003D6B;" d="M383,35c0-19.299-15.701-35-35-35h-93.5v158H383V35z"/>
<path style="fill:#009AF2;" d="M360.954,512H148.955l-21.974-334h258.144L360.954,512z"/>
<polygon style="fill:#0078EB;" points="385.125,178 256.053,178 256.053,512 360.954,512 "/>
<path style="fill:#00E0FF;" d="M416,208H96v-80h320V208z"/>
<path style="fill:#8DF4FF;" d="M328,107H186V0h142V107z"/>
<rect x="256" y="128" style="fill:#009AF2;" width="160" height="80"/>
<rect x="257" style="fill:#00E0FF;" width="71" height="107"/>
<g>
</g>
<g>
</g>
<g>
</g>
<g>
</g>
<g>
</g>
<g>
</g>
<g>
</g>
<g>
</g>
<g>
</g>
<g>
</g>
<g>
</g>
<g>
</g>
<g>
</g>
<g>
</g>
<g>
</g>
</svg>
